<svg width="92" height="90" viewBox="0 0 92 90" fill="none" xmlns="http://www.w3.org/2000/svg">
<path d="M82.5518 32.8926C82.2913 33.2181 82.0391 33.5355 81.7949 33.8447C81.5671 34.1377 81.3392 34.4469 81.1113 34.7725C82.7552 35.3747 84.0817 36.1234 85.0908 37.0186C86.0999 37.8975 86.8812 38.8252 87.4346 39.8018C87.988 40.762 88.3542 41.7142 88.5332 42.6582C88.7285 43.5859 88.8262 44.3916 88.8262 45.0752C88.8262 46.0355 88.6634 46.9551 88.3379 47.834C88.0286 48.6966 87.6055 49.486 87.0684 50.2021C86.5475 50.9183 85.9372 51.5449 85.2373 52.082C84.5374 52.6029 83.805 53.0016 83.04 53.2783C84.6188 54.5804 85.7907 56.029 86.5557 57.624C87.3369 59.2191 87.7275 60.8304 87.7275 62.458C87.7275 63.8252 87.4427 65.1191 86.873 66.3398C86.3197 67.5605 85.5628 68.6266 84.6025 69.5381C83.6423 70.4495 82.5029 71.1738 81.1846 71.7109C79.8825 72.248 78.4909 72.5166 77.0098 72.5166C75.724 72.5166 74.5358 72.305 73.4453 71.8818C72.3711 71.4749 71.4027 70.9134 70.54 70.1973C69.6937 69.4811 68.9531 68.6348 68.3184 67.6582C67.6999 66.6816 67.2116 65.64 66.8535 64.5332L68.0742 64.167C68.6764 66.1201 69.6693 67.6257 71.0527 68.6836C72.4362 69.7578 74.1045 70.2949 76.0576 70.2949C77.262 70.2949 78.4095 70.0671 79.5 69.6113C80.6068 69.1719 81.5752 68.5697 82.4053 67.8047C83.2354 67.0234 83.8945 66.112 84.3828 65.0703C84.8711 64.0124 85.1152 62.873 85.1152 61.6523C85.1152 60.8223 85.0013 60.0329 84.7734 59.2842C84.5456 58.5355 84.2445 57.8275 83.8701 57.1602C83.4958 56.4928 83.0726 55.8825 82.6006 55.3291C82.1449 54.7594 81.6729 54.2549 81.1846 53.8154C80.7451 53.8968 80.3057 53.9619 79.8662 54.0107C79.4268 54.0596 78.9954 54.084 78.5723 54.084C77.9863 54.084 77.3841 54.0433 76.7656 53.9619C76.1634 53.8643 75.61 53.7259 75.1055 53.5469C74.6172 53.3678 74.2103 53.1318 73.8848 52.8389C73.5755 52.5459 73.4209 52.1878 73.4209 51.7646C73.4209 51.667 73.4453 51.5286 73.4941 51.3496C73.543 51.1543 73.6406 50.9671 73.7871 50.7881C73.9499 50.609 74.1859 50.4544 74.4951 50.3242C74.8044 50.1777 75.2275 50.1045 75.7646 50.1045C76.2692 50.1045 76.7738 50.1615 77.2783 50.2754C77.7992 50.3893 78.2956 50.5439 78.7676 50.7393C79.2396 50.9183 79.6953 51.1299 80.1348 51.374C80.5742 51.6019 80.973 51.8379 81.3311 52.082C81.917 51.8216 82.5029 51.4717 83.0889 51.0322C83.6911 50.5765 84.2363 50.0231 84.7246 49.3721C85.2129 48.721 85.6117 47.9723 85.9209 47.126C86.2301 46.2796 86.3848 45.3275 86.3848 44.2695C86.3848 42.4141 85.8721 40.7458 84.8467 39.2646C83.8213 37.7835 82.2995 36.6523 80.2812 35.8711C79.3047 37.2383 78.3932 38.5973 77.5469 39.9482C76.7005 41.2992 75.9111 42.6501 75.1787 44.001C74.4463 45.3519 73.7546 46.7028 73.1035 48.0537C72.4688 49.4046 71.8584 50.7718 71.2725 52.1553C69.9215 55.3128 68.6032 58.0146 67.3174 60.2607C66.0316 62.4906 64.6562 64.3135 63.1914 65.7295C61.7428 67.1455 60.1559 68.179 58.4307 68.8301C56.7217 69.4974 54.7604 69.8311 52.5469 69.8311C50.8379 69.8311 49.3649 69.5462 48.1279 68.9766C46.891 68.4232 45.8737 67.6582 45.0762 66.6816C44.2786 65.7051 43.6846 64.5739 43.2939 63.2881C42.9196 61.986 42.7324 60.6025 42.7324 59.1377C42.7324 57.5101 42.9928 55.8337 43.5137 54.1084C44.0345 52.3669 44.8076 50.6335 45.833 48.9082C46.484 47.8177 47.2897 46.6865 48.25 45.5146C49.2103 44.3265 50.3089 43.1628 51.5459 42.0234C52.7829 40.8678 54.1582 39.7773 55.6719 38.752C57.2018 37.7103 58.8457 36.807 60.6035 36.042C62.3776 35.2607 64.2656 34.6423 66.2676 34.1865C68.2858 33.7145 70.4098 33.4785 72.6396 33.4785C74.0068 33.4785 75.252 33.5518 76.375 33.6982C77.5143 33.8285 78.5641 34.0238 79.5244 34.2842C79.8988 33.9098 80.2731 33.5355 80.6475 33.1611C81.0381 32.7868 81.4368 32.4124 81.8438 32.0381L82.5518 32.8926ZM72.835 43.0244C73.6976 41.5921 74.5928 40.2493 75.5205 38.9961C76.4645 37.7266 77.4736 36.5059 78.5479 35.334C77.9294 35.1875 77.2702 35.0736 76.5703 34.9922C75.8867 34.9108 75.1624 34.8701 74.3975 34.8701C71.9398 34.8701 69.5146 35.2119 67.1221 35.8955C64.7458 36.5628 62.4753 37.4987 60.3105 38.7031C58.1621 39.9076 56.1683 41.3398 54.3291 43C52.4899 44.6602 50.8949 46.4668 49.5439 48.4199C48.2093 50.3568 47.1595 52.4076 46.3945 54.5723C45.6458 56.737 45.2715 58.9342 45.2715 61.1641C45.2715 62.2708 45.418 63.2799 45.7109 64.1914C46.0202 65.0866 46.4759 65.8597 47.0781 66.5107C47.6803 67.1455 48.4209 67.6419 49.2998 68C50.195 68.3418 51.2204 68.5127 52.376 68.5127C54.3128 68.5127 56.0055 68.1546 57.4541 67.4385C58.9027 66.7061 60.1885 65.7132 61.3115 64.46C62.4508 63.2067 63.4762 61.75 64.3877 60.0898C65.2992 58.4134 66.1862 56.6312 67.0488 54.7432C67.9277 52.8551 68.8229 50.9102 69.7344 48.9082C70.6458 46.9062 71.6794 44.945 72.835 43.0244ZM79.6709 52.5703C79.4268 52.3913 79.1338 52.2285 78.792 52.082C78.4665 51.9193 78.1247 51.7891 77.7666 51.6914C77.4085 51.5775 77.0505 51.488 76.6924 51.4229C76.3343 51.3577 76.0251 51.3252 75.7646 51.3252C75.3089 51.3252 75.016 51.3822 74.8857 51.4961C74.7718 51.5938 74.7148 51.6833 74.7148 51.7646C74.7148 51.9111 74.8206 52.0413 75.0322 52.1553C75.2601 52.2692 75.5368 52.375 75.8623 52.4727C76.2041 52.554 76.5785 52.6191 76.9854 52.668C77.3923 52.7168 77.791 52.7412 78.1816 52.7412C78.3607 52.7412 78.5641 52.7331 78.792 52.7168C79.0199 52.7005 79.3128 52.6517 79.6709 52.5703Z" fill="#DCB69F"/>
<path d="M71.6289 14.4326C71.6615 14.2373 71.6859 14.0501 71.7021 13.8711C71.7347 13.6758 71.751 13.4886 71.751 13.3096C71.751 12.626 71.6126 11.9749 71.3359 11.3564C71.0755 10.7217 70.6849 10.1683 70.1641 9.69629C69.6595 9.20801 69.041 8.82552 68.3086 8.54883C67.5762 8.25586 66.7542 8.10938 65.8428 8.10938C64.8825 8.10938 63.8652 8.32096 62.791 8.74414C61.7168 9.15104 60.6426 9.87533 59.5684 10.917C58.5267 11.9261 57.4525 13.2282 56.3457 14.8232C55.2552 16.402 54.1647 18.1517 53.0742 20.0723C52 21.9766 50.9421 23.9867 49.9004 26.1025C48.875 28.2184 47.8984 30.3018 46.9707 32.3525C46.043 34.4033 45.1885 36.3646 44.4072 38.2363C43.626 40.1081 42.9505 41.7601 42.3809 43.1924C41.8112 44.6084 41.3636 45.7477 41.0381 46.6104C40.7288 47.473 40.5661 47.9206 40.5498 47.9531L39.3047 47.6357C39.1094 46.3825 38.9303 45.2513 38.7676 44.2422C38.6211 43.2331 38.4909 42.2646 38.377 41.3369C38.2793 40.4092 38.2061 39.4896 38.1572 38.5781C38.1084 37.6667 38.084 36.6901 38.084 35.6484C38.084 34.8021 38.1165 33.8337 38.1816 32.7432C38.263 31.6527 38.3688 30.4971 38.499 29.2764C38.6455 28.0557 38.8083 26.8024 38.9873 25.5166C39.1826 24.2308 39.3861 22.9694 39.5977 21.7324C39.8255 20.4954 40.0615 19.3236 40.3057 18.2168C40.5498 17.0938 40.8021 16.0846 41.0625 15.1895C39.679 17.2565 38.4095 19.3398 37.2539 21.4395C36.1146 23.5391 35.0322 25.598 34.0068 27.6162C32.9814 29.6344 31.9886 31.5957 31.0283 33.5C30.068 35.388 29.0833 37.1621 28.0742 38.8223C27.0651 40.4824 25.999 42.0042 24.876 43.3877C23.7529 44.7712 22.516 45.9512 21.165 46.9277C19.8304 47.9206 18.3493 48.6855 16.7217 49.2227C15.0941 49.776 13.2712 50.0527 11.2529 50.0527C9.72298 50.0527 8.27441 49.8411 6.90723 49.418C5.55632 48.9948 4.36816 48.4007 3.34277 47.6357C2.31738 46.8708 1.51172 45.943 0.925781 44.8525C0.323568 43.762 0.0224609 42.5576 0.0224609 41.2393C0.0224609 39.7419 0.347982 38.4072 0.999023 37.2354C1.63379 36.0472 2.48014 35.0544 3.53809 34.2568C4.59603 33.443 5.81673 32.8245 7.2002 32.4014C8.58366 31.9782 10.016 31.7666 11.4971 31.7666C12.3434 31.7666 13.1979 31.8236 14.0605 31.9375C14.9395 32.0514 15.7939 32.2386 16.624 32.499C17.4704 32.7594 18.2842 33.1094 19.0654 33.5488C19.8467 33.972 20.571 34.501 21.2383 35.1357L20.2861 35.9902C20.2861 35.9902 20.1071 35.8438 19.749 35.5508C19.4072 35.2415 18.8864 34.9079 18.1865 34.5498C17.5029 34.1917 16.6322 33.8662 15.5742 33.5732C14.5163 33.264 13.2793 33.1094 11.8633 33.1094C10.724 33.1094 9.61719 33.2721 8.54297 33.5977C7.46875 33.9232 6.50846 34.4033 5.66211 35.0381C4.83203 35.6729 4.16471 36.4541 3.66016 37.3818C3.1556 38.3096 2.90332 39.3838 2.90332 40.6045C2.90332 41.8577 3.17188 42.9808 3.70898 43.9736C4.24609 44.9502 4.96224 45.7721 5.85742 46.4395C6.7526 47.123 7.76986 47.6357 8.90918 47.9775C10.0485 48.3356 11.2204 48.5146 12.4248 48.5146C14.2152 48.5146 15.8346 48.2135 17.2832 47.6113C18.748 47.0254 20.099 46.1953 21.3359 45.1211C22.5892 44.0469 23.7529 42.7611 24.8271 41.2637C25.9176 39.7663 26.9756 38.1143 28.001 36.3076C29.0264 34.501 30.0599 32.5723 31.1016 30.5215C32.1432 28.4544 33.2419 26.3223 34.3975 24.125C35.5531 21.9277 36.7982 19.6898 38.1328 17.4111C39.4674 15.1325 40.9404 12.8701 42.5518 10.624L43.6748 11.21C43.1377 12.7887 42.7064 14.457 42.3809 16.2148C42.0553 17.9564 41.8031 19.7549 41.624 21.6104C41.4613 23.4495 41.3473 25.3132 41.2822 27.2012C41.2334 29.0892 41.2008 30.9528 41.1846 32.792C41.1683 34.6312 41.152 36.4297 41.1357 38.1875C41.1357 39.929 41.0951 41.5811 41.0137 43.1436C41.5671 41.7275 42.2344 40.0755 43.0156 38.1875C43.7969 36.2995 44.6595 34.3057 45.6035 32.2061C46.5475 30.1064 47.5485 27.9743 48.6064 25.8096C49.6807 23.6286 50.7712 21.5452 51.8779 19.5596C53.001 17.5739 54.1322 15.7591 55.2715 14.1152C56.4271 12.4551 57.5583 11.0879 58.665 10.0137C59.8857 8.8418 61.1064 8.01986 62.3271 7.54785C63.5641 7.05957 64.7441 6.81543 65.8672 6.81543C66.974 6.81543 67.9668 7.0026 68.8457 7.37695C69.7409 7.73503 70.4977 8.21517 71.1162 8.81738C71.7347 9.40332 72.2067 10.0869 72.5322 10.8682C72.8577 11.6494 73.0205 12.4551 73.0205 13.2852C73.0205 13.7409 72.9717 14.2129 72.874 14.7012L71.6289 14.4326Z" fill="#DCB69F"/>
</svg>
